<?xml version="1.0" standalone="no"?>
<!DOCTYPE svg PUBLIC "-//W3C//DTD SVG 20010904//EN"
 "http://www.w3.org/TR/2001/REC-SVG-20010904/DTD/svg10.dtd">
<svg version="1.0" xmlns="http://www.w3.org/2000/svg"
 width="2048.000000pt" height="2048.000000pt" viewBox="0 0 2048.000000 2048.000000"
 preserveAspectRatio="xMidYMid meet">
<metadata>
Created by potrace 1.14, written by Peter Selinger 2001-2017
</metadata>
<g transform="translate(0.000000,2048.000000) scale(0.100000,-0.100000)"
fill="#000000" stroke="none">
<path d="M0 20440 l0 -40 10173 -2 c5594 -1 10186 -2 10202 -3 l30 -1 3
-10152 c2 -8118 0 -10152 -10 -10152 -2236 2 -20277 -5 -20325 -7 l-73 -5 0
-39 0 -39 10240 0 10240 0 0 10240 0 10240 -10240 0 -10240 0 0 -40z"/>
<path d="M16298 18970 c-146 -25 -358 -132 -656 -331 -417 -279 -875 -684
-1282 -1133 -553 -611 -687 -799 -974 -1365 -75 -147 -147 -277 -159 -288 -12
-12 -96 -63 -187 -115 -160 -92 -416 -252 -590 -368 -116 -78 -176 -107 -246
-119 -93 -16 -574 -20 -2369 -23 l-1670 -3 -59 33 c-32 18 -142 93 -245 165
-103 73 -274 191 -380 262 -311 209 -288 185 -417 435 -370 719 -837 1282
-1659 2004 -417 366 -692 562 -983 702 -378 183 -585 175 -776 -27 -149 -157
-264 -489 -310 -889 -56 -495 -53 -1182 10 -1990 37 -490 116 -969 239 -1455
224 -884 376 -1289 714 -1900 67 -121 147 -270 177 -332 l56 -112 -36 -133
c-161 -594 -259 -1570 -228 -2266 35 -794 140 -1376 372 -2077 89 -267 313
-858 328 -863 6 -2 38 7 73 18 162 55 1050 300 1444 399 219 55 644 146 820
175 132 22 455 57 465 51 5 -3 17 -1 27 4 10 5 66 17 125 27 113 18 135 25
124 42 -9 15 -95 42 -135 42 -56 0 -99 16 -129 48 -27 29 -32 30 -147 37 -66
4 -214 5 -328 1 -211 -6 -252 -2 -241 29 7 17 69 40 149 56 33 6 170 13 305
14 235 3 245 4 248 23 3 16 -7 23 -45 36 -140 46 -414 99 -673 130 -125 15
-214 38 -238 61 -17 16 -8 36 28 60 29 19 48 51 37 62 -21 20 -336 53 -519 54
-70 0 -130 4 -133 9 -3 5 18 21 47 34 77 35 514 175 626 201 l97 22 -173 -5
c-176 -5 -247 1 -472 39 -109 18 -369 49 -417 49 -13 0 -23 5 -23 10 0 6 7 10
15 10 8 0 49 14 92 31 43 17 179 66 303 109 267 91 333 119 307 129 -28 10
-386 -26 -590 -60 -104 -17 -191 -29 -193 -26 -8 7 149 54 260 78 50 11 159
31 241 44 83 13 161 28 174 33 l25 9 -30 7 c-16 4 -182 4 -369 -1 -430 -10
-428 -10 -432 3 -5 15 68 49 171 78 191 56 378 83 663 95 117 6 220 14 230 19
14 8 12 12 -15 26 -134 69 -624 87 -892 32 -36 -8 -66 -13 -68 -11 -6 5 182
142 239 174 76 43 143 64 299 96 165 34 178 39 123 54 -79 21 -189 30 -374 31
-102 0 -188 3 -192 6 -8 8 24 71 71 143 64 97 117 110 277 67 138 -37 291
-100 395 -162 140 -84 261 -138 393 -178 281 -85 471 -114 639 -97 356 36 657
201 804 442 19 33 39 59 43 59 25 0 28 -250 4 -329 -25 -82 -136 -190 -254
-248 -197 -97 -467 -165 -969 -243 -201 -31 -350 -66 -350 -81 0 -19 107 -39
209 -39 98 0 292 14 351 25 15 3 10 -3 -15 -14 -55 -24 -172 -52 -278 -65 -48
-6 -89 -16 -90 -21 -3 -16 100 -62 193 -85 119 -31 270 -36 470 -16 139 14
357 42 475 61 27 5 27 4 -7 -9 -43 -17 -236 -60 -363 -80 -99 -16 -288 -55
-293 -61 -5 -5 95 -23 173 -31 86 -9 60 -19 -72 -29 -149 -10 -278 -26 -286
-35 -16 -15 222 -33 371 -27 188 6 484 64 676 131 71 25 131 44 133 42 12 -12
-183 -110 -274 -138 -40 -12 -73 -27 -73 -32 0 -11 70 -2 260 35 229 44 290
59 339 80 24 11 46 18 48 15 2 -2 -44 -36 -102 -75 -58 -40 -105 -75 -105 -78
0 -12 93 10 158 36 37 15 81 31 97 34 29 7 29 6 -15 -34 -25 -22 -73 -59 -107
-81 -63 -40 -83 -65 -40 -52 56 17 154 67 211 108 104 74 178 180 228 323 69
202 166 644 213 964 79 549 41 926 -162 1619 -25 85 -68 232 -95 325 -27 94
-92 343 -144 555 -52 212 -106 430 -120 485 -28 112 -100 344 -111 362 -5 6
-8 -165 -8 -380 0 -295 3 -403 13 -436 7 -23 11 -45 9 -47 -10 -11 -103 128
-142 211 -59 125 -122 328 -159 505 -2 14 -3 -78 -1 -205 4 -207 20 -388 40
-437 5 -13 2 -18 -9 -18 -29 0 -151 285 -197 460 -14 55 -20 101 -17 137 3 29
2 53 -1 53 -7 0 -202 -358 -273 -500 -63 -127 -104 -232 -133 -343 -72 -271
-74 -488 -6 -684 16 -46 26 -83 23 -83 -10 0 -167 83 -240 127 -84 51 -133 73
-162 73 -20 0 -3 -33 99 -189 15 -23 14 -23 -4 -13 -11 6 -36 27 -55 47 -90
95 -202 152 -559 284 -461 172 -575 198 -825 188 -123 -5 -172 -11 -266 -36
-184 -48 -403 -127 -578 -208 -90 -41 -165 -73 -168 -70 -2 2 49 30 113 63 65
32 128 69 139 81 21 23 40 32 29 13 -3 -5 -2 -10 4 -10 5 0 14 6 18 14 7 13
80 53 123 69 8 3 10 6 3 6 -16 1 -233 -84 -298 -116 -27 -14 -69 -39 -92 -55
-24 -16 -43 -24 -43 -18 0 6 18 37 41 69 26 37 42 73 46 101 l6 44 -29 -18
c-56 -36 -99 -71 -172 -140 -40 -38 -75 -66 -78 -63 -9 9 12 43 124 200 214
300 491 603 612 670 36 20 110 48 166 64 55 15 102 33 105 38 6 15 -214 19
-296 5 -89 -16 -207 -52 -313 -97 -45 -20 -86 -32 -90 -29 -7 8 35 47 104 95
55 40 177 100 304 151 132 52 252 112 257 126 7 20 -38 23 -106 9 -74 -16
-238 -67 -271 -85 -12 -6 -24 -9 -26 -7 -9 8 137 94 256 151 63 30 187 79 274
110 225 78 239 98 73 109 -139 9 -333 -23 -446 -74 -35 -16 -66 -28 -68 -26
-6 7 100 93 172 139 39 25 102 59 140 75 180 77 304 126 475 187 102 37 192
71 200 76 28 17 -1 23 -108 22 -163 -3 -284 -28 -420 -88 -68 -30 -59 -18 31
44 257 175 441 256 697 308 69 14 126 27 128 28 12 12 -249 105 -383 136 -515
120 -980 171 -1680 185 -143 3 -331 7 -417 10 -101 3 -158 1 -158 -5 0 -5 20
-90 44 -187 70 -280 106 -438 106 -467 0 -54 -92 -136 -134 -120 -48 18 -214
559 -345 1129 -98 423 -140 642 -196 1015 -120 799 -144 1631 -61 2143 16 96
46 160 88 185 25 15 28 15 48 -3 34 -31 79 -135 95 -218 10 -53 15 -143 15
-270 0 -106 3 -201 6 -212 3 -12 94 -78 237 -172 275 -180 407 -257 662 -386
296 -151 448 -252 695 -464 134 -115 517 -494 681 -673 288 -316 726 -740
1049 -1015 58 -49 142 -126 187 -170 46 -44 91 -83 100 -87 24 -9 201 -8 233
2 23 7 20 10 -40 37 -321 150 -304 140 -470 290 -160 144 -319 308 -550 568
-170 191 -344 378 -439 473 -40 40 -71 76 -68 79 8 8 359 -347 521 -527 77
-85 265 -280 418 -434 239 -240 280 -278 300 -272 13 3 151 15 308 27 157 11
294 24 305 29 l20 8 -20 7 c-63 24 -182 84 -194 98 -12 15 -11 17 5 17 11 0
88 -14 173 -30 234 -45 269 -40 195 31 -20 18 -40 42 -45 52 -9 16 -8 16 28 0
21 -10 68 -35 105 -55 100 -56 113 -50 51 25 -21 25 -78 82 -126 128 -87 81
-114 115 -103 127 4 3 21 -8 39 -24 17 -17 49 -42 69 -57 20 -15 65 -52 100
-82 35 -30 66 -55 70 -55 14 0 -13 66 -58 143 -25 43 -42 82 -39 85 9 9 3711
9 3720 0 7 -6 -14 -33 -127 -166 -80 -93 -59 -106 69 -42 64 32 97 58 167 130
49 50 90 89 93 87 13 -13 -40 -82 -133 -172 -136 -131 -140 -153 -18 -89 56
30 65 33 49 15 -10 -12 -48 -42 -82 -67 -35 -25 -63 -49 -63 -55 0 -12 105
-12 150 1 19 5 87 18 152 30 64 11 125 23 135 27 38 14 -7 -25 -78 -67 -38
-23 -69 -47 -69 -53 0 -7 48 -8 148 -3 216 10 632 -19 632 -44 0 -14 -24 -27
-128 -69 -57 -23 -133 -56 -170 -74 l-67 -32 80 -3 c64 -2 96 2 163 23 93 29
80 19 384 300 89 83 236 217 327 299 91 82 300 281 464 444 286 284 376 363
225 196 -286 -313 -495 -517 -933 -910 -240 -216 -435 -430 -435 -479 0 -11
51 33 145 124 50 48 167 154 260 236 416 364 743 690 975 970 46 55 207 224
359 375 485 485 851 787 1367 1132 126 84 238 158 249 164 17 9 19 30 26 233
13 359 47 494 131 524 37 13 96 -63 118 -155 35 -144 30 -791 -10 -1281 -71
-885 -170 -1486 -411 -2477 -113 -468 -139 -550 -175 -564 -31 -12 -107 35
-128 79 -18 36 -18 46 -7 124 18 135 90 486 112 548 23 68 24 77 4 69 -8 -3
-118 -10 -243 -16 -448 -21 -976 -74 -1292 -129 -400 -71 -680 -145 -834 -223
-72 -36 -66 -42 59 -58 270 -34 419 -88 586 -212 61 -46 146 -134 137 -143 -1
-2 -55 14 -118 35 -174 57 -322 84 -439 77 -103 -5 -168 -22 -141 -37 8 -4 87
-27 175 -49 295 -77 520 -163 690 -264 84 -50 164 -112 155 -120 -3 -3 -36 3
-75 14 -138 36 -316 60 -420 57 -147 -4 -137 -18 75 -103 273 -110 555 -253
536 -272 -2 -3 -37 7 -78 22 -144 52 -327 84 -335 58 -7 -20 37 -40 217 -102
178 -60 201 -69 317 -122 74 -34 178 -98 170 -105 -2 -3 -72 13 -153 36 -82
22 -183 47 -224 55 -147 29 -341 32 -325 5 3 -6 65 -40 138 -77 81 -41 175
-100 247 -154 117 -89 349 -316 428 -420 41 -55 182 -296 182 -312 0 -5 -36
25 -81 65 -44 40 -87 76 -95 81 -19 11 -18 -13 1 -60 8 -20 14 -37 12 -39 -1
-1 -45 28 -96 67 -52 38 -96 67 -98 65 -18 -18 50 -157 152 -311 22 -33 28
-35 -91 41 -111 72 -252 141 -419 207 -269 106 -447 147 -665 154 -194 6 -336
-16 -549 -86 -236 -78 -664 -251 -723 -292 -14 -11 -29 -19 -33 -19 -4 0 -34
-18 -66 -40 -33 -22 -59 -38 -59 -35 0 15 43 133 56 153 21 33 3 27 -52 -16
-52 -41 -121 -83 -246 -151 -70 -37 -78 -40 -78 -22 0 11 4 22 9 25 12 8 41
166 49 271 12 159 -3 312 -48 493 -44 177 -95 335 -155 477 -40 99 -164 343
-177 351 -4 3 -8 -23 -8 -59 0 -71 -26 -179 -66 -277 -68 -168 -176 -369 -198
-370 -4 0 -6 6 -3 13 80 181 91 254 82 557 -3 129 -11 239 -16 245 -5 5 -9 -7
-9 -32 0 -66 -47 -300 -78 -393 -35 -100 -146 -348 -166 -368 -11 -11 -12 3
-8 87 6 124 -12 324 -41 456 -12 55 -22 130 -22 167 0 37 0 66 -1 65 -12 -16
-100 -309 -164 -546 -89 -333 -129 -467 -255 -851 -46 -140 -98 -304 -115
-365 -64 -229 -124 -531 -151 -760 -16 -137 -16 -498 -1 -615 67 -497 247
-1078 404 -1308 48 -70 136 -153 202 -190 l58 -32 -7 27 c-3 16 -19 45 -36 65
-25 32 -37 58 -25 58 2 0 39 -16 81 -35 89 -41 201 -68 225 -55 11 7 2 15 -40
33 -67 30 -219 117 -205 117 6 0 51 -13 100 -28 228 -72 312 -89 371 -76 l39
10 -100 53 c-55 30 -112 61 -127 68 -29 15 -48 36 -26 28 35 -11 292 -107 358
-133 69 -27 88 -30 247 -35 231 -9 789 4 653 15 -174 13 -443 71 -424 91 4 4
48 7 98 8 94 1 149 10 131 21 -10 6 -132 30 -215 42 -173 26 -423 87 -445 108
-7 7 -3 8 10 5 63 -17 226 -48 330 -64 170 -24 478 -25 600 0 95 20 241 80
215 90 -8 3 -91 22 -185 43 -93 21 -162 40 -151 42 10 2 69 -1 130 -7 205 -21
250 -22 297 -5 24 9 68 19 98 23 137 16 33 49 -274 86 -274 34 -396 51 -530
76 -444 82 -638 142 -763 237 -128 96 -171 211 -141 378 21 119 24 119 110 22
94 -107 146 -155 220 -204 330 -216 829 -243 1294 -69 55 21 188 79 295 130
107 51 233 105 280 120 81 25 286 65 335 65 28 0 63 -55 93 -145 11 -33 23
-67 26 -75 5 -13 -21 -15 -206 -15 -206 0 -351 -14 -372 -35 -6 -6 -7 -10 -4
-10 22 0 242 -46 343 -72 145 -36 251 -85 294 -133 57 -65 64 -64 -265 -65
-307 0 -416 -12 -445 -46 -7 -8 -7 -14 -1 -14 5 0 79 -9 163 -20 214 -29 493
-86 561 -117 52 -23 118 -77 107 -87 -2 -3 -61 -1 -129 4 -138 10 -296 13
-288 5 2 -3 31 -10 64 -16 86 -15 223 -49 242 -59 10 -5 26 -11 36 -15 49 -15
-9 -15 -201 -1 -340 25 -403 28 -403 18 0 -5 17 -14 38 -20 20 -7 105 -41 187
-78 83 -36 208 -90 278 -119 132 -55 144 -61 135 -71 -3 -3 -86 -12 -184 -20
-99 -8 -264 -23 -369 -34 -433 -44 -425 -43 -587 -31 -233 19 -334 24 -328 18
3 -4 53 -11 110 -17 365 -36 743 -121 1012 -228 63 -25 35 -31 -159 -30 -131
0 -232 -6 -298 -16 -104 -16 -242 -49 -253 -61 -4 -4 6 -16 23 -28 48 -35 95
-78 95 -88 0 -5 -18 -18 -40 -29 -41 -21 -100 -28 -387 -50 -228 -17 -426 -56
-550 -110 -96 -41 -63 -54 95 -39 261 24 612 -35 612 -103 0 -11 -98 -10 -348
3 -306 17 -498 -6 -546 -66 -15 -19 -42 -31 -98 -46 -66 -16 -155 -56 -146
-64 2 -1 100 -8 218 -14 372 -21 616 -51 1020 -126 230 -43 288 -55 520 -110
261 -61 919 -250 1269 -364 84 -28 157 -49 160 -46 16 9 195 457 289 720 193
540 307 1065 371 1700 35 344 42 460 48 810 6 374 -3 580 -43 950 -51 477 -90
738 -149 984 -19 79 -35 153 -35 165 0 12 24 62 53 111 240 404 441 811 566
1148 200 536 450 1755 531 2577 17 182 39 543 51 867 9 235 9 372 0 555 -38
818 -123 1146 -362 1403 -131 140 -282 201 -431 175z m-11648 -1523 c195 -112
329 -203 581 -396 68 -52 375 -323 585 -516 348 -320 535 -479 799 -680 207
-158 314 -244 400 -319 171 -151 166 -161 -10 -19 -71 58 -161 128 -200 157
-677 505 -723 543 -1215 1017 -124 120 -265 252 -315 294 -205 175 -446 343
-712 497 -68 39 -123 72 -123 75 0 6 96 -44 210 -110z m11245 25 c-6 -5 -48
-35 -95 -67 -296 -203 -645 -480 -1020 -810 -331 -290 -472 -404 -875 -710
-104 -79 -253 -192 -330 -251 -157 -119 -139 -92 34 55 128 107 475 389 687
556 129 102 220 176 434 355 445 373 751 608 1023 789 122 80 172 110 142 83z
m-1646 -2035 c-2 -2 -179 -169 -394 -372 -231 -217 -319 -296 -215 -193 243
242 591 568 607 568 3 0 4 -1 2 -3z m-8849 -3148 c-26 -17 -70 -40 -70 -35 0
7 64 46 75 46 6 0 3 -5 -5 -11z m8020 -1068 c47 -4 96 -13 110 -18 28 -12 105
-34 117 -33 5 0 8 3 8 8 0 4 4 13 8 20 6 8 2 12 -12 12 -12 0 -21 7 -21 15 0
30 26 14 100 -62 86 -89 136 -179 171 -309 17 -63 22 -117 26 -264 4 -180 4
-188 -25 -301 -78 -305 -211 -513 -436 -683 -71 -53 -254 -140 -361 -171 -157
-46 -295 -61 -427 -48 -188 19 -388 90 -504 179 -162 124 -266 334 -266 539 0
57 5 93 18 120 l18 40 3 -50 c3 -49 19 -152 29 -188 4 -11 12 -16 20 -13 9 3
14 -1 14 -11 0 -14 2 -15 13 -4 10 10 9 14 -5 22 -10 6 -18 15 -18 20 0 6 5 7
10 4 6 -3 10 -1 10 4 0 6 -4 11 -9 11 -6 0 -9 62 -7 153 3 150 3 153 38 227
51 110 143 228 297 380 238 237 401 323 731 384 47 8 105 20 130 25 25 5 65 8
90 5 25 -2 83 -8 130 -13z m-6030 -21 c22 -11 48 -20 59 -20 11 0 23 -4 26
-10 3 -5 15 -10 26 -10 10 0 19 -4 19 -10 0 -5 10 -10 23 -10 18 0 19 -2 7
-10 -10 -7 -11 -10 -2 -11 27 -3 31 -4 38 -11 4 -5 19 -8 32 -8 14 0 23 -3 19
-6 -6 -6 51 -59 64 -59 4 0 11 -3 15 -7 4 -5 21 -8 38 -8 69 0 211 -131 411
-378 184 -229 259 -353 301 -499 42 -144 3 -277 -126 -432 -120 -144 -325
-252 -578 -306 -94 -19 -262 -19 -358 1 -89 18 -323 95 -409 134 -126 57 -291
203 -378 335 -150 228 -199 385 -199 640 -1 326 98 581 251 647 104 45 192 56
444 57 219 1 241 -1 277 -19z m-1020 -200 c0 -5 -7 -27 -15 -47 -38 -98 -57
-218 -62 -395 -6 -192 5 -321 38 -441 23 -81 94 -234 163 -347 25 -41 43 -77
40 -79 -2 -3 -61 24 -130 58 -164 81 -229 143 -296 281 -64 131 -83 217 -82
360 1 96 6 129 28 197 33 101 113 225 221 341 73 78 95 95 95 72z m7684 -29
c71 -49 162 -155 200 -233 58 -118 69 -181 63 -338 -6 -151 -20 -212 -71 -315
-47 -96 -91 -150 -172 -217 -72 -58 -274 -183 -274 -169 0 5 8 19 19 32 70 91
169 320 222 514 27 100 38 370 20 497 -11 75 -39 195 -56 241 -10 24 0 22 49
-12z"/>
<path d="M13325 10864 c11 -10 43 -37 70 -59 28 -22 62 -52 78 -68 15 -16 27
-25 27 -20 0 12 -85 103 -96 103 -4 0 -21 10 -38 23 -43 33 -65 44 -41 21z"/>
<path d="M13254 10768 c31 -35 91 -104 133 -155 42 -51 79 -91 81 -88 8 7
-233 289 -257 299 -8 4 11 -22 43 -56z"/>
<path d="M12474 10712 c-16 -10 -25 -45 -16 -59 5 -8 12 2 19 27 5 22 10 40 9
40 -1 0 -6 -4 -12 -8z"/>
<path d="M13526 10657 c3 -10 9 -15 12 -12 3 3 0 11 -7 18 -10 9 -11 8 -5 -6z"/>
<path d="M13551 10577 c4 -31 5 -67 2 -79 -4 -19 -3 -20 6 -8 15 21 14 103 -3
125 -11 16 -12 11 -5 -38z"/>
<path d="M7758 11003 c7 -3 16 -2 19 1 4 3 -2 6 -13 5 -11 0 -14 -3 -6 -6z"/>
<path d="M7586 10905 c-11 -19 -16 -38 -13 -42 4 -3 7 -1 7 6 0 7 9 26 21 42
11 16 17 29 12 29 -5 0 -17 -16 -27 -35z"/>
<path d="M6956 10874 c-15 -14 -27 -27 -25 -29 2 -2 19 10 37 26 18 16 29 29
25 29 -5 0 -21 -12 -37 -26z"/>
<path d="M7796 10875 c-3 -13 -1 -44 6 -68 9 -36 15 -43 30 -39 44 11 43 63
-1 110 -27 27 -27 27 -35 -3z"/>
<path d="M7845 10870 c3 -5 11 -10 16 -10 6 0 7 5 4 10 -3 6 -11 10 -16 10 -6
0 -7 -4 -4 -10z"/>
<path d="M6895 10777 c-13 -34 -16 -64 -12 -122 7 -104 23 -115 19 -13 -2 45
1 101 8 126 15 59 6 64 -15 9z"/>
<path d="M7618 10691 c18 -17 36 -31 39 -31 11 0 -31 41 -52 52 -11 6 -5 -4
13 -21z"/>
<path d="M3991 16679 c0 -373 6 -452 35 -473 29 -22 308 -151 509 -236 55 -23
116 -49 135 -57 161 -68 290 -149 290 -182 0 -18 -15 -13 -138 45 -64 31 -187
85 -272 119 -239 98 -388 163 -469 205 -41 22 -76 38 -78 37 -10 -11 33 -557
45 -569 4 -4 79 -36 167 -71 323 -131 413 -170 560 -241 298 -145 505 -297
700 -515 l75 -84 173 -58 c290 -96 500 -197 917 -441 238 -139 390 -218 440
-230 52 -12 123 1 236 43 l57 22 -31 13 c-41 17 -110 64 -94 64 6 0 54 -13
105 -30 104 -33 167 -39 167 -15 0 15 -259 258 -470 440 -124 108 -604 583
-1090 1081 -328 335 -502 497 -692 641 -137 103 -225 155 -476 282 -120 61
-267 143 -327 183 -143 95 -401 283 -442 321 l-33 31 1 -325z m1414 -1353
c118 -35 246 -86 370 -148 113 -57 165 -92 165 -114 0 -7 -2 -14 -4 -14 -1 0
-54 24 -117 54 -172 81 -378 158 -496 187 -46 10 -73 31 -73 56 0 20 34 15
155 -21z"/>
<path d="M16350 16919 c-41 -32 -142 -109 -225 -170 -493 -369 -757 -593
-1130 -960 -231 -226 -339 -340 -570 -599 -370 -415 -618 -652 -1050 -1007
-200 -164 -297 -256 -234 -223 29 16 148 40 165 33 9 -3 12 -13 7 -31 -5 -20
0 -30 28 -53 31 -26 32 -28 12 -29 -12 0 -25 -5 -28 -11 -15 -23 106 4 225 51
55 21 386 185 405 200 29 22 825 414 912 449 109 43 240 88 341 116 61 17 63
19 92 77 69 136 176 273 334 428 47 46 86 88 86 92 0 17 -57 6 -139 -26 -216
-87 -619 -238 -645 -243 -46 -9 -28 17 35 49 190 99 660 268 743 268 8 0 22
-7 30 -16 15 -14 31 -9 179 52 198 82 397 170 409 182 16 16 40 217 64 539 l7
93 -89 -45 c-49 -25 -195 -96 -324 -159 -129 -62 -282 -143 -340 -180 -100
-63 -137 -72 -109 -28 37 59 390 259 701 397 59 27 122 60 139 75 l32 26 9
310 c5 170 7 330 6 355 l-3 47 -75 -59z"/>
<path d="M4055 15463 c3 -15 24 -142 46 -282 22 -141 42 -264 45 -273 3 -11
26 -24 57 -32 96 -28 416 -82 682 -116 136 -18 366 -53 523 -80 26 -4 42 -3
42 3 0 15 -144 153 -239 230 -180 145 -365 250 -676 382 -185 79 -472 195
-482 195 -3 0 -2 -12 2 -27z"/>
<path d="M16325 15471 c-6 -6 -105 -47 -220 -91 -301 -117 -349 -144 -471
-265 -96 -96 -233 -269 -282 -355 l-23 -40 37 0 c37 0 150 15 529 70 110 16
226 32 257 36 31 3 63 11 71 18 16 13 33 88 82 379 36 206 41 269 20 248z"/>
<path d="M4160 14810 c0 -38 102 -509 134 -621 l16 -56 328 -6 c1026 -21 1657
-99 2210 -274 114 -36 146 -42 157 -33 8 7 24 10 35 7 11 -3 22 -1 26 4 6 11
-99 79 -231 149 -130 69 -153 81 -325 180 -357 204 -608 317 -848 384 -200 56
-352 85 -777 146 -361 52 -680 107 -705 120 -14 7 -20 7 -20 0z"/>
<path d="M16130 14763 c-38 -6 -245 -38 -440 -68 -237 -36 -500 -89 -601 -121
-178 -56 -489 -200 -859 -399 -58 -31 -211 -108 -340 -171 -246 -121 -313
-161 -289 -175 20 -10 120 10 369 74 509 132 1123 218 1765 247 127 5 260 13
297 16 81 7 69 -23 133 319 25 132 48 250 50 263 5 19 2 22 -27 21 -18 -1 -44
-4 -58 -6z"/>
<path d="M7028 13793 c7 -3 16 -2 19 1 4 3 -2 6 -13 5 -11 0 -14 -3 -6 -6z"/>
<path d="M13775 11856 c-165 -35 -347 -99 -645 -226 -98 -42 -115 -59 -25 -25
39 15 104 40 145 55 41 15 125 47 185 70 233 88 384 125 561 139 l109 8 -110
1 c-79 0 -141 -6 -220 -22z"/>
<path d="M7060 11666 c0 -2 7 -7 16 -10 8 -3 12 -2 9 4 -6 10 -25 14 -25 6z"/>
<path d="M7195 11607 c55 -24 140 -63 188 -86 86 -40 155 -58 92 -24 -50 27
-324 143 -353 148 -15 4 18 -14 73 -38z"/>
<path d="M9965 8334 c-462 -24 -672 -99 -756 -269 -29 -58 -31 -71 -28 -143 4
-71 8 -85 35 -124 48 -66 129 -126 281 -207 238 -127 338 -205 423 -331 66
-97 140 -263 140 -313 0 -29 -57 -168 -104 -251 -73 -130 -193 -266 -321 -361
-54 -40 -401 -251 -500 -303 -101 -54 -176 -75 -189 -53 -3 5 17 44 45 86 27
42 48 79 46 81 -2 2 -24 -11 -48 -29 -99 -74 -239 -157 -239 -141 0 4 23 31
50 61 28 31 49 58 46 60 -3 3 -45 -21 -95 -53 -49 -33 -113 -73 -141 -91 -54
-33 -138 -57 -164 -47 -40 15 -26 86 30 159 19 25 31 45 28 45 -8 0 -90 -57
-155 -107 -58 -45 -179 -100 -179 -81 0 24 43 155 63 190 11 20 49 60 85 89
36 29 60 55 54 57 -34 11 -437 -206 -722 -388 -538 -345 -868 -582 -1165 -839
-77 -67 -144 -121 -149 -121 -25 0 261 282 424 419 257 215 371 301 705 533
282 196 469 310 720 440 246 128 380 215 460 299 60 62 69 95 12 43 -93 -87
-207 -153 -367 -213 -63 -24 -136 -54 -162 -67 -83 -42 -105 -26 -40 29 63 54
203 191 213 208 5 10 -26 -1 -84 -30 -51 -26 -175 -84 -277 -130 -319 -145
-669 -324 -940 -481 -36 -21 -82 -47 -103 -59 -186 -104 -604 -362 -1062 -656
-181 -116 -424 -269 -540 -340 -289 -176 -422 -263 -695 -453 -256 -179 -363
-261 -384 -295 -12 -20 -38 -131 -145 -615 -25 -114 -34 -175 -27 -177 6 -2
209 -8 451 -14 575 -15 965 -39 1575 -96 684 -65 997 -106 1725 -225 289 -48
617 -101 1080 -175 357 -58 810 -133 960 -160 77 -14 181 -32 230 -41 142 -25
207 -21 460 29 210 42 775 139 1170 201 274 43 1826 264 2110 301 662 85 1335
135 2342 173 105 4 195 10 198 14 8 8 -6 87 -70 378 -30 135 -57 262 -60 282
-6 31 -19 46 -78 91 -195 148 -679 458 -1157 740 -411 243 -543 321 -720 427
-107 64 -278 166 -380 225 -102 59 -212 124 -245 144 -90 54 -87 52 -187 108
-51 29 -118 67 -148 84 -30 17 -84 48 -120 69 -469 275 -641 371 -871 487
-103 51 -190 93 -193 93 -4 0 -77 33 -164 73 -204 96 -207 96 -142 35 30 -28
123 -118 205 -198 180 -176 220 -206 665 -503 389 -260 639 -440 882 -634 162
-130 402 -342 395 -350 -2 -2 -94 63 -203 145 -568 422 -903 650 -1574 1065
-80 50 -172 107 -205 127 -33 21 -61 37 -63 35 -4 -3 66 -123 90 -154 59 -76
-17 -45 -234 99 -65 42 -114 72 -111 66 49 -85 240 -289 301 -320 44 -23 42
-40 -5 -31 -20 3 -87 11 -147 15 -124 10 -142 15 -241 60 -124 57 -125 57 -47
-22 39 -40 72 -77 72 -81 0 -4 -11 -7 -23 -7 -33 0 -141 71 -211 138 l-58 57
26 -42 c14 -24 26 -47 26 -53 0 -20 -81 32 -157 100 -42 39 -78 68 -80 66 -2
-2 12 -31 32 -66 54 -95 45 -124 -31 -97 -40 13 -409 218 -514 285 -189 120
-291 250 -386 492 -61 155 -51 240 47 401 56 93 161 204 251 266 40 27 144 92
232 144 87 51 178 110 201 131 120 105 118 305 -4 427 -69 69 -190 121 -346
147 -89 15 -478 26 -630 18z m680 -194 c136 -13 199 -34 236 -79 38 -47 38
-84 -1 -123 l-31 -31 -92 9 c-51 5 -157 9 -237 9 -123 0 -164 -4 -271 -28
l-126 -29 -118 27 c-153 34 -310 41 -480 22 -71 -8 -139 -11 -150 -7 -53 20
-78 96 -45 135 35 42 172 77 365 94 139 12 829 13 950 1z m-325 -1907 c151
-24 297 -69 415 -128 252 -125 421 -303 454 -476 25 -136 -41 -352 -148 -486
-71 -89 -209 -178 -243 -157 -5 3 0 21 11 40 25 42 54 137 49 162 -2 12 -8 7
-20 -19 -19 -40 -99 -119 -144 -142 -16 -8 -63 -22 -104 -31 -65 -14 -134 -16
-525 -12 -413 4 -455 6 -512 24 -86 27 -127 55 -175 118 -22 30 -44 54 -49 54
-16 0 -9 -79 11 -132 11 -28 18 -54 16 -56 -12 -12 -84 39 -135 94 -128 140
-209 399 -175 562 62 299 454 565 886 602 115 10 264 3 388 -17z"/>
<path d="M7780 7351 c-8 -5 -37 -12 -65 -15 -132 -18 -562 -91 -745 -127 -392
-77 -557 -118 -1395 -345 -168 -46 -533 -153 -564 -165 l-24 -10 5 -152 5
-152 -30 -28 c-17 -16 -47 -37 -66 -47 -57 -29 -14 -36 77 -12 42 11 257 66
477 122 505 128 1034 272 1420 386 173 52 538 155 670 189 80 21 268 62 438
95 37 8 57 16 57 26 0 8 -9 14 -21 14 -11 0 -51 7 -88 16 -64 14 -70 18 -85
52 -8 20 -20 59 -26 86 -14 64 -21 77 -40 67z"/>
<path d="M12530 7342 c0 -6 -31 -45 -70 -87 -38 -42 -70 -80 -70 -84 0 -14
-47 -30 -57 -20 -11 11 -171 32 -210 27 -25 -4 -22 -6 32 -32 72 -33 139 -50
265 -66 159 -20 639 -132 965 -225 221 -64 363 -103 695 -191 195 -52 438
-117 540 -144 102 -27 311 -81 465 -118 154 -38 288 -73 298 -77 28 -12 20 14
-8 27 -14 6 -28 23 -32 37 -5 22 18 229 34 298 5 24 2 26 -482 169 -781 230
-1007 285 -1575 383 -490 84 -790 123 -790 103z"/>
<path d="M12330 7045 c0 -7 49 -108 63 -129 9 -15 9 -20 -1 -23 -20 -8 -43
-34 -39 -46 3 -10 44 -26 332 -125 334 -115 1266 -474 1575 -607 238 -103 857
-361 1020 -425 59 -24 300 -130 369 -164 30 -14 58 -26 62 -26 9 0 -17 75 -38
108 -10 15 -30 43 -45 62 -40 52 -93 173 -150 344 -59 177 -84 229 -109 221
-16 -6 -331 77 -609 160 -80 23 -208 59 -285 80 -77 20 -234 63 -350 96 -115
33 -232 67 -260 74 -27 8 -140 41 -250 74 -279 83 -716 202 -1000 272 -222 54
-285 67 -285 54z"/>
<path d="M7855 7023 c-47 -12 -301 -84 -425 -121 -74 -22 -191 -57 -260 -77
-69 -20 -165 -49 -215 -64 -223 -71 -422 -129 -1215 -351 -775 -217 -837 -236
-857 -262 -5 -7 -27 -58 -48 -113 -20 -55 -79 -182 -131 -282 -51 -101 -91
-183 -88 -183 2 0 68 32 147 71 357 179 670 308 1127 464 190 65 492 174 660
240 138 53 151 58 430 161 140 51 305 112 365 134 61 23 187 67 280 97 239 78
252 85 262 131 11 54 10 155 -2 157 -5 2 -19 0 -30 -2z"/>
<path d="M11875 6955 c22 -14 70 -41 106 -60 37 -19 127 -69 200 -112 74 -43
153 -87 177 -97 49 -22 53 -33 15 -41 -122 -26 -190 -55 -128 -55 14 0 25 -4
25 -10 0 -5 -5 -10 -11 -10 -14 0 70 -66 144 -113 31 -20 59 -37 61 -37 5 0
300 -160 631 -343 351 -193 1168 -663 1540 -885 198 -118 455 -271 570 -340
364 -217 809 -501 929 -594 28 -21 29 -21 22 -3 -5 11 -75 216 -156 455 -202
595 -227 660 -250 660 -6 0 -75 29 -154 64 -79 36 -229 99 -333 141 -103 43
-455 191 -780 331 -326 140 -648 276 -715 303 -68 27 -229 93 -358 146 -129
53 -309 126 -400 161 -91 36 -185 73 -210 84 -25 10 -108 42 -184 70 -143 53
-256 101 -406 172 -135 64 -291 126 -335 133 l-40 6 40 -26z"/>
<path d="M8175 6870 c-60 -27 -175 -70 -255 -95 -152 -49 -688 -246 -850 -313
-342 -140 -442 -180 -750 -292 -459 -167 -864 -327 -1165 -460 -236 -104 -555
-255 -555 -263 0 -2 -14 -42 -30 -88 -52 -141 -138 -421 -215 -694 -40 -143
-80 -278 -90 -299 l-17 -39 29 18 c15 10 55 39 88 65 198 154 486 346 860 572
312 188 554 338 730 453 160 104 427 269 600 370 83 48 182 107 220 130 68 41
108 63 280 155 44 24 244 126 445 227 201 101 375 195 388 209 26 29 28 56 7
74 -28 23 -16 48 43 93 90 68 139 100 257 166 61 33 106 61 100 60 -5 0 -59
-23 -120 -49z"/>
<path d="M11540 6612 c0 -5 19 -27 43 -48 49 -46 273 -214 283 -214 22 0 -63
70 -313 263 -9 6 -13 6 -13 -1z"/>
</g>
</svg>
